<svg xmlns="http://www.w3.org/2000/svg" viewBox="0 0 32 26" width="32" height="26">
	<style>
		tspan { white-space:pre }
		.shp0 { fill: #000000 } 
	</style>
	<g id="Layer">
		<path id="Layer" fill-rule="evenodd" class="shp0" d="M4.03 20.2C3.53 20.16 3.06 20.19 2.62 20.07C1.36 19.75 0.38 18.82 0.12 17.54C0.06 17.26 0.05 16.97 0.05 16.69C0.05 12.32 0.06 7.95 0.04 3.59C0.04 2.5 0.41 1.59 1.24 0.85C1.69 0.45 2.27 0.23 2.9 0.17C3.13 0.15 3.36 0.14 3.59 0.14C11.87 0.14 20.15 0.14 28.43 0.15C28.87 0.15 29.35 0.19 29.76 0.33C31.04 0.77 31.68 1.72 31.9 2.94C31.97 3.32 31.97 3.72 31.97 4.11C31.97 8.29 31.97 12.47 31.97 16.65C31.97 18.05 31.39 19.12 30.03 19.81C29.53 20.06 29.03 20.12 28.5 20.12C23.04 20.12 17.58 20.12 12.13 20.11C11.83 20.11 11.62 20.19 11.42 20.39C10.49 21.3 9.54 22.2 8.59 23.1C7.82 23.84 7.05 24.57 6.3 25.32C6.07 25.55 5.86 25.79 5.5 25.83C4.81 25.92 4.2 25.53 4.07 24.89C4.04 24.74 4.03 24.58 4.03 24.42C4.03 23.13 4.03 21.84 4.03 20.55C4.03 20.45 4.03 20.33 4.03 20.2ZM5.65 23.65C5.68 23.66 5.7 23.67 5.73 23.69C5.91 23.5 6.08 23.31 6.26 23.13C7.07 22.35 7.87 21.57 8.69 20.79C9.35 20.16 10.02 19.54 10.68 18.91C10.72 18.88 10.77 18.85 10.79 18.8C10.9 18.55 11.12 18.52 11.38 18.52C17.12 18.52 22.86 18.52 28.6 18.53C29.23 18.53 29.76 18.31 30.04 17.79C30.22 17.46 30.31 17.06 30.32 16.69C30.34 12.81 30.33 8.94 30.33 5.06C30.33 4.54 30.32 4.02 30.33 3.5C30.35 2.59 29.65 1.59 28.41 1.72C28.4 1.72 28.39 1.72 28.38 1.72C20.13 1.72 11.88 1.72 3.63 1.72C3.42 1.72 3.21 1.72 3 1.76C2.79 1.81 2.56 1.87 2.41 2C1.92 2.4 1.66 2.9 1.66 3.54C1.68 7.1 1.67 10.66 1.67 14.22C1.67 15.12 1.66 16.03 1.67 16.93C1.68 17.62 2.1 18.19 2.76 18.41C2.96 18.48 3.19 18.51 3.4 18.51C4.14 18.52 4.88 18.51 5.65 18.51C5.65 20.26 5.65 21.96 5.65 23.65Z" />
		<path id="Layer" class="shp0" d="M15.91 7.48C18.56 7.48 21.22 7.48 23.87 7.48C24.63 7.48 25.03 8.04 24.71 8.69C24.63 8.85 24.44 8.98 24.27 9.07C24.14 9.14 23.96 9.13 23.81 9.13C18.52 9.13 13.23 9.13 7.95 9.13C7.39 9.13 7.13 8.98 6.99 8.59C6.8 8.04 7.2 7.5 7.82 7.49C10.52 7.48 13.22 7.48 15.91 7.48Z" />
		<path id="Layer" class="shp0" d="M15.88 12.16C13.22 12.16 10.57 12.15 7.91 12.17C7.27 12.17 6.7 11.58 7.04 10.97C7.13 10.8 7.35 10.67 7.53 10.57C7.63 10.51 7.8 10.53 7.93 10.53C13.23 10.53 18.53 10.53 23.83 10.53C24.4 10.53 24.62 10.69 24.79 11.08C25.02 11.61 24.44 12.18 23.93 12.18C22.52 12.16 21.12 12.17 19.71 12.17C18.44 12.16 17.16 12.16 15.88 12.16Z" />
		<path id="Layer" class="shp0" d="M15.87 6.06C13.2 6.06 10.52 6.06 7.85 6.06C7.29 6.06 6.97 5.79 6.95 5.29C6.93 4.87 7.22 4.54 7.68 4.49C7.8 4.48 7.91 4.48 8.03 4.48C13.27 4.48 18.52 4.48 23.76 4.48C23.83 4.48 23.91 4.48 23.98 4.48C24.5 4.5 24.85 4.82 24.84 5.27C24.84 5.75 24.5 6.06 23.95 6.06C22.04 6.06 20.13 6.06 18.22 6.06C17.45 6.06 16.66 6.06 15.87 6.06Z" />
		<path id="Layer" class="shp0" d="M12.51 15.15C10.95 15.15 9.39 15.15 7.82 15.15C7.26 15.15 6.92 14.82 6.93 14.33C6.94 13.88 7.28 13.57 7.78 13.57C8.43 13.56 9.08 13.57 9.73 13.57C12.21 13.57 14.7 13.57 17.18 13.57C17.86 13.57 18.26 14.1 18.03 14.66C17.9 14.98 17.61 15.15 17.18 15.15C15.64 15.15 14.08 15.15 12.51 15.15Z" />
	</g>
</svg>