<?xml version="1.0" standalone="no"?>
<!DOCTYPE svg PUBLIC "-//W3C//DTD SVG 1.1//EN" "http://www.w3.org/Graphics/SVG/1.1/DTD/svg11.dtd">
<svg xmlns="http://www.w3.org/2000/svg">
<metadata>Generated by Fontastic.me</metadata>
<defs>
<font id="tssfonts" horiz-adv-x="512">
<font-face font-family="tssfonts" units-per-em="512" ascent="480" descent="-32"/>
<missing-glyph horiz-adv-x="512" />

<glyph glyph-name="archive" unicode="&#57344;" d="M133 394c-4-2-10-6-13-9-4-5-41-92-74-175l-5-12 10 5c6 3 15 6 21 6l11 1 9 25c31 83 48 128 51 130 2 1 53 2 115 2 104 0 112 0 116-4 2-3 16-38 31-79l27-73 13-2c7-1 16-4 21-7l9-5-5 12c-32 82-70 171-75 176-12 12-13 13-138 13-91-1-118-1-124-4z m24-50c-1-3-2-6-1-7 2-2 202-2 204 0 0 1 0 4-2 7-3 5-4 5-100 5-96 0-98 0-101-5z m-10-32c-1-3-2-6-2-7 0 0 51-1 113-1 62 0 113 1 113 1 0 1-1 4-3 7-2 4-6 4-110 4-104 0-108 0-111-4z m-7-29c-7-10-10-10 118-10l123 0-3 6-4 6-115 0c-91 1-117 0-119-2z m-7-32c-3-2-6-5-6-7 0-3 19-4 131-4 112 0 131 1 131 4 0 2-3 5-6 7-5 4-21 4-125 4-104 0-120 0-125-4z m-12-33c-2-3-4-6-4-6 0-1 63-2 141-2 77 0 141 1 141 2 0 1-2 4-5 6-4 4-17 4-137 4-124 0-132 0-136-4z m-54-28c-11-3-21-10-26-19-5-10-7-85-3-105 3-15 15-28 29-30 4-1 93-1 198-1 188 1 189 1 196 6 16 12 18 18 18 72 0 47-1 50-6 59-3 5-9 11-14 14-8 4-13 5-196 5-104 0-192 0-196-1z m148-45c3-1 8-5 10-9l4-7 58 0 4 7c6 12 16 14 25 4 9-8 9-30 1-39-5-6-6-6-59-6-51 0-54 1-59 6-9 8-9 30 0 39 7 7 8 7 16 5z"/>
<glyph glyph-name="back-icon2" unicode="&#57345;" d="M435 434l-297 0c-13 0-24-7-31-16l-105-170 107-162c6-9 17-16 29-16l297 0c40 0 74 34 74 74l0 216c-2 42-34 74-74 74z m40-292c0-22-19-41-41-41l-296 0c-2 0-2 0-4 1l-96 146 96 152c0 2 2 2 4 2l296 0c22 0 41-20 41-42z m-73 184l-23 23-75-75-85 86-22-24 85-85-80-80 22-22 80 80 80-80 22 22-80 80z"/>
<glyph glyph-name="cart" unicode="&#57346;" d="M446 400c-93 0-187 1-280 0-24-1-38 5-41 30-2 24-19 36-40 43-16 6-49 24-56-1-4-13-2-26 14-32 10-4 21-8 31-12 9-3 15-7 17-17 18-69 38-138 55-207 5-16 2-32-15-42-42-24-55-71-31-114 12-21 38-39 64-31 18 5 27 19 38 34 10 14 23 18 40 17 28-2 57 8 72-23 11-22 32-34 58-29 24 5 38 23 46 45 9 21 6 42 1 63-3 17-10 31-26 39-3 2-7 3-11 4 7 0 14-1 20-2 15-3 28 5 36 17 8 10 9 24 12 37 3 16 6 32 9 48 7 34 17 69 21 104 2 24-12 29-34 29z m-295-337c-19 0-24 13-24 30 1 15 7 27 24 26 18 0 21-14 24-27-3-15-6-29-24-29z m159 81c-15-23-34-22-58-22-8 0-16-1-23 0-14 2-23 13-29 24-7 12-5 18 9 18 12 0 24 1 36 0 33-3 67 2 100 4-14-4-27-12-35-24z m76-52c1-14-6-28-22-29-18-1-24 11-24 22 0 20 3 33 21 34 17 1 24-12 25-27z m47 243c-8-34-17-68-24-103-2-10-7-14-17-14-65 0-130 0-195 0-10 0-15 4-18 14-8 36-17 72-27 108-4 18 8 13 16 14 43 0 85 0 128 0 40 0 81-1 122 0 17 1 18-5 15-19z m-136-65c27 0 55 0 83 0 8 0 18 1 18-12-1-10-8-13-17-13-58 0-117 0-176 0-7 0-14 3-14 12-1 10 7 13 15 13 30 0 60 0 91 0 0 0 0 0 0 0z m-4 36c-33 0-66 0-98 0-9 0-20-2-19 11 0 13 11 11 19 11 66 0 132 0 198 0 8 0 19 3 19-11 0-12-11-11-20-11-33 0-66 0-99 0z"/>
<glyph glyph-name="currency" unicode="&#57347;" d="M320 8c-5 2-10 2-14 3-50 13-80 43-92 93-12 54 15 109 64 133 56 27 119 11 154-40 19-26 26-56 19-88-8-48-37-80-81-96-7-3-15-3-23-5-1 0-3 0-3-2-8 2-16 2-24 2z m-10 112c0 5 0 11 0 16 18 0 34 0 50 0 0 8 0 14 0 21-14 0-29 0-45 0 3 8 8 13 15 16 9 5 20 5 32 3 6 0 11-2 17-3 0 8 0 14 0 22 0 3-1 5-3 5-6 2-13 3-19 3-15 2-29 0-42-6-14-7-25-18-30-34-2-6-5-8-10-6-3 0-6 0-9 0 0-8 0-15 0-21 4 0 9 0 12 0 0-5 0-11 0-16-4 0-9 0-12 0 0-8 0-14 0-21 4 0 8 0 11 0 5 0 6-1 8-5 6-17 17-28 35-33 13-5 27-5 40-5 8 0 16 3 22 5 0 9 0 17 0 27-3-2-8-2-11-3-13-3-27-3-40 1-6 4-11 7-14 15 13 0 24 0 35 0 0 8 0 14 0 21-6 0-13 0-19 0-10-2-16-2-23-2z m-249 262c0 66 54 120 120 122 67 0 121-53 121-120 0-69-54-122-120-122-67-1-121 53-121 120z m133-67c9 3 17 5 25 8 21 10 27 37 13 55-6 6-14 11-22 12-5 2-10 2-16 4 0 9 0 19 0 30 12-3 25-5 38-8 0 5 0 10 0 16 0 11 0 11-11 13-10 3-19 3-29 5 0 4 0 8 0 12-8 0-14 0-21 0 0-4 0-9 0-12-5-2-11-2-16-4-9-3-19-8-24-16-9-16-9-43 19-52 7-2 15-4 21-5 0-10 0-19 0-31-14 4-29 5-43 8 0-6 0-14 0-22 0-2 2-3 3-3 7-2 13-3 18-5 8-2 14-2 22-3 0-5 0-8 0-13 8 0 15 0 21 0 2 3 2 8 2 11z m-132-217c10 9 20 19 31 30-5 5-8 8-11 11-8 10-16 19-24 29-18 27-16 56-2 83 3 8 8 16 13 24 1-6 1-11 3-16 3-19 11-35 26-48 12-11 24-24 35-35 1-2 1-2 3-3 10 9 19 19 29 29 0 0 1 0 1 0 2-36 4-71 4-108-36 0-71 2-108 4z m381 137c-3 27-13 50-32 67-11 12-22 23-32 32-1 2-1 2-3 4-10-10-19-20-29-29-1 37-3 72-3 107 34 0 69-2 104-3-10-10-19-19-29-29 8-10 16-16 23-24 14-18 24-37 24-61 0-14-5-27-12-40-1-8-6-16-11-24z m-272 187c0-8 0-16 0-25-11 3-17 6-17 14 1 7 6 11 17 11z m23-80c0 8 0 16 0 24 8 0 16-4 16-11 0-6-5-11-16-13z"/>
<glyph glyph-name="editor" unicode="&#57348;" d="M43 0c-17 6-22 19-22 38 0 146 0 290 0 436 0 27 9 38 37 38 83 0 164 0 246 0 8 0 14-2 21-8 24-26 49-50 75-75 5-5 6-11 8-18 3-25-3-48-19-67-5-5-8-11-15-18 0 21 0 42 0 63 0 8-1 9-9 9-18 0-35 0-53 0-13 0-16 5-16 16 0 18 0 36 0 53 0 8-2 10-10 10-75 0-148 0-224 0-8 0-9-2-9-10 0-142 0-285 0-427 0-10 3-10 11-10 93 0 184 0 277 0 8 0 17 0 25 0 7 0 8 2 8 8 0 20 0 39 0 58 0 6 2 13 5 18 10 12 18 25 27 43 0-11 0-18 0-26 0-30 0-61 0-93 0-19-4-32-22-40-114 2-227 2-341 2z m232 106c-5 19 7 38 18 56 30 46 61 92 91 139 6 9 10 6 18 1 6-4 11-8 4-16-22-33-43-67-65-99-5-6-5-9 3-14 8-5 10 0 13 5 22 33 43 65 65 99 5 8 10 6 16 3 7-5 13-6 7-18-35-52-69-105-104-158-3-5-7-8-11-10-13-6-26-12-40-19-4-1-8-5-12-3-4 3-1 8-1 13-3 5-2 11-2 21z m216 232c0-2-1-4-3-5-10-15-19-29-29-43-5-7-8-7-14-4-15 10-27 20-42 28-6 3-6 6-3 12 10 15 19 31 29 45 3 5 6 7 11 3 14-9 30-19 45-28 5-2 6-4 6-8z m-304 30c26 0 53 0 79 0 9 0 17-2 17-13 0-11-8-13-17-13-53 0-106 0-159 0-8 0-16 2-16 13 0 13 8 13 16 13 27 0 53 0 80 0z m-38 37c-15 0-29 0-42 0-8 0-16 1-16 13 0 9 8 12 16 12 29 0 58 0 87 0 8 0 16-3 16-12 0-10-7-13-16-13-15 0-31 0-45 0z m0-122c-15 0-29 0-45 0-8 0-14 3-14 11 0 10 4 13 14 13 30 0 59 0 90 0 8 0 14-3 14-13 0-9-6-11-14-11-15 0-31 0-45 0z m0-61c-15 0-29 0-45 0-8 0-14 4-14 13 0 10 6 11 14 11 29 0 59 0 88 0 8 0 14-3 14-11 0-9-6-13-16-13-11 0-25 0-41 0z m61-104c-2 4-5 0-7-1-9-7-21-10-32-7-8 2-14 0-19-4-5-5-10-10-18-8 8 19 12 36 15 56 0 6 1 11-5 14-6 3-11-2-14-5-10-9-15-22-13-37 1-9 1-16-8-20-2-2-3-5-5-7-2-3-3-8 0-11 3-3 6-2 11 0 7 2 10 6 11 13 0-2 0-3 0-5-4-10-9-19-16-27-1-2-3-5 0-7 0-3 2 0 4 2 4 6 8 14 12 21 2 3 2 6 7 6 11-1 17 5 24 11 5 4 8 5 14 4 13-4 24 0 35 6 2 2 5 5 4 6z m-100-27c-1 0-3 0-3 2 0 6 5 9 11 13 2-8-3-12-8-15z m20 15c-15 14-12 41 3 52 1 2 5 4 6 4 3-2 3-5 2-8-2-16-5-32-11-48z"/>
<glyph glyph-name="file-create" unicode="&#57349;" d="M421 212c0-29 0-59 0-88 0-23 0-46 0-69 0-8 0-15-1-23 0-19-15-32-36-32-66 0-132 0-198 0-43 0-85 0-128 0-9 0-18 3-25 10-8 7-11 16-11 26 0 110 0 220 0 331 0 4 0 8 0 12 1 9 5 17 11 24 33 32 67 65 99 98 8 7 16 11 27 11 75 0 151 0 227 0 19 0 33-13 34-33 1-11 1-21 0-32 0-2-1-4-3-5-11-2-18-9-24-18-2-2-4-5-7-8 0 2 0 3 0 5 0 17 0 34 0 51 0 4-1 5-5 5-69 0-137 0-206 0-1 0-3 0-5-1 0-9 0-19 0-29 0-19 0-39 0-58-1-14-12-24-26-25-26 0-53 0-79 0-8 0-8 0-8-7 0-105 0-210 0-315 0-2 0-4 0-7 3 0 4 0 6 0 105 0 211 0 316 0 7 0 7 0 7 7 0 44 0 88 0 133 0 4 0 7 3 10 1 2 3 4 4 6 4 6 8 12 16 13 4 2 8 5 12 8z m-351 176c0-1 1-1 2-1 23 0 46 0 70 0 4 0 6 2 6 6 0 23 0 46-1 69 0 1 0 2 0 3-26-26-52-52-77-77z m344-18c-1 1-2 2-2 2-5 4-5 4-9-1-19-25-39-50-58-75-1-2-2-3-4-5-3-3-7-4-10-2-3 3-4 7-1 11 6 8 13 17 19 25 22 28 44 57 66 85 1 2 2 3 3 5 3 3 6 3 10 1 3-3 3-6 1-10-1-2-3-5-5-8-2-2-1-3 1-5 2-1 3-4 6-1 1 2 2 3 3 5 6 7 11 9 20 6 13-4 24-11 32-22 5-8 5-13 0-20-27-42-54-84-81-126-1-2-2-4-4-5-3-2-6-4-8-3-5 2-6 0-8-3-20-28-39-56-59-83-13-18-28-34-48-46-2-1-4-1-7-1-1-1-2-1-3-2-2-2-4-5-5-8-3-3-8-4-11-2-4 2-4 6-1 11 1 2 2 4 4 6 1 2 3 4 0 6 0 1 0 3 0 4 5 26 17 49 32 71 18 25 36 51 54 77 3 3 4 5 0 9-3 3-1 6 1 9 18 24 36 48 55 72 5 8 11 15 17 23z m-109-58c-1-7-2-14-2-20 0-4-3-4-5-4-20 0-40 0-60 0-43 0-86 0-130 0-6 0-6 0-6 7 0 4 0 8 0 11 0 4 1 6 5 6 24 0 48 0 71 0 41 0 82 0 123 0 2 0 3 0 4 0z m7-53c-6-7-10-14-16-21 0-1-3-2-4-2-62 0-124 0-185 0-4 0-5 2-5 5 0 4 0 8 0 12 0 7 0 7 6 7 38 0 75 0 112 0 29 0 58 0 87 0 1 0 2 0 5-1z m-37-51c-5-8-10-15-15-22-1-1-3-2-4-2-50 0-99 0-149 0-4 0-5 2-5 5 0 5 0 9 0 13 0 5 2 6 6 6 30-1 61 0 91 0 24 0 47 0 70 0 2 0 3 0 6 0z m-171-123c1 16 11 27 24 25 10-1 17-7 24-14 6-8 7-9 16-3 18 12 38 11 57 4 5-2 7-6 5-10-1-3-4-5-9-4-8 1-15 3-23 4-8 1-15-2-22-6-3-2-6-4-8-5-9-5-16-4-22 3-3 4-6 8-9 11-2 2-4 3-6 4-6 3-10 1-12-6-1-1-1-3-1-4 0-5-3-8-7-8-5 0-7 3-7 8 0 1 0 1 0 1z m22 37c-7 0-13 2-17 8-3 4-2 8 1 11 3 3 6 2 10-2 4-3 8-3 12 0 4 5 8 5 12 2 3-3 3-7-1-11-5-6-11-8-17-8z"/>
<glyph glyph-name="file-search" unicode="&#57350;" d="M475 32c-17 18-37 37-54 54-7 5-8 10-3 18 8 13 11 27 12 43 2 51-38 93-89 96-51 3-93-37-96-93 0-32 13-59 43-78 30-19 64-19 94-2 7 4 10 4 16-1 18-19 37-37 55-56 9-10 17-11 24-3 8 6 6 14-2 22z m-137 50c-37 0-69 32-69 68 0 37 32 69 69 69 36 0 68-32 67-69 0-38-31-68-67-68z m57-47c-101 0-230 0-325 0-9 0-11 3-11 11 0 160 0 261 0 421 0 10 3 11 11 11 66 0 130 0 196 0 8 0 11-1 11-11 0-24 0-89 0-115 0-22 8-32 30-32 23 0 80 0 103 0 12 0 16-3 14-14 0-5 0-36 0-71l32 0c0 43 0 82 0 91 0 12-5 18-11 26-29 35-99 109-136 144-8 8-16 11-26 11-75 0-150 0-225 0-23 0-31-8-31-30 0-83 0-168 0-251 0-85 0-111 0-196 0-20 8-28 29-28 99 0 232 0 338 0l0 33z m-85 415c18-21 72-79 88-98-16 0-65 0-81 0-7 0-8 3-8 8 1 18 1 75 1 90z m-80-63l-132 0c-10 0-16 8-16 16l0 2c0 9 8 16 16 16l132 0c10 0 16-8 16-16l0-2c0-9-6-16-16-16z m0-97l-132 0c-10 0-16 8-16 16l0 1c0 10 8 16 16 16l132 0c10 0 16-8 16-16l0-1c0-10-6-16-16-16z m-48-95l-84 0c-10 0-16 8-16 16l0 2c0 9 8 16 16 16l83 0c9 0 16-8 16-16l0-2c1-9-7-16-15-16z m0-96l-84 0c-10 0-16 8-16 16l0 2c0 9 8 16 16 16l83 0c9 0 16-8 16-16l0-2c1-8-7-16-15-16z"/>
<glyph glyph-name="filter-search" unicode="&#57351;" d="M48 405c-6 0-12 3-17 7-9 10-9 26 0 36 5 5 11 7 17 7l388 0c7 0 13-2 17-7 10-10 10-26 0-36-4-4-10-7-17-7z m418-256c-5 2-8 5-12 9-22 23-26 27-48 50-2 3-4 3-7 1-61-37-139 5-145 78-5 54 33 103 85 109 60 7 115-43 109-110-2-14-6-28-13-40-2-3-2-4 1-7 21-21 24-23 45-44 5-6 11-10 14-17 0 0 2-6 0-15-3-7-8-12-14-14-1-1-8-3-15 0z m-115 227c-43-1-77-36-77-81 0-43 35-79 77-79 43 1 77 36 77 81 0 43-35 79-77 79z m80 21c0 3 0 6 0 1 1-9-2-16-8-23-1 0-1-1-2-2-11 11-24 19-38 24 16 0 32 0 48 0z m-140-281c1-16-4-24-17-30-25-11-49-25-75-38 0 7 0 11 0 15 0 50 0 100-1 150 0 6-2 14-6 19-42 49-85 97-127 146-3 3-6 6-6 9 0 4 0 5 0 6 0 1 0 2 0 4 87 0 173 0 259 0-41-14-70-54-70-101 0-36 17-68 43-88 0-30-1-61 0-92z"/>
<glyph glyph-name="lock" unicode="&#57352;" d="M412 330l-13 0 0 47c0 74-60 135-135 135l-8 0c-74 0-135-61-135-135l0-47-21 0c-21 0-39-18-39-39l0-130c0-89 73-161 162-161l66 0c89 0 162 72 162 161l0 130c0 21-18 39-39 39z m-131-156c1-1 1-2 1-3l0-45c0-14-12-26-26-26-14 0-26 12-26 26l0 45c0 1 0 3 1 4-10 8-15 19-15 32 0 23 18 41 40 41 23 0 41-19 41-41 1-13-6-25-16-33z m83 156l-207 0 0 39c0 58 46 104 103 104 57 0 104-46 104-104l0-39z"/>
<glyph glyph-name="project-setting" unicode="&#57353;" d="M218 464c-1-4-3-8-8-8-5 0-8 3-8 8 0 4 3 7 7 8 5 0 8-3 9-8z m-93-38c-1-5-3-8-8-8-5 0-8 3-8 8 1 4 3 7 8 7 5 0 7-3 8-7z m-38-93c-1-5-3-8-8-8-5 0-8 3-8 8 0 5 3 7 7 8 5 0 8-3 9-8z m38-93c-1-5-4-8-9-7-4 0-7 3-6 8 0 5 3 7 7 7 5 0 7-4 8-8z m27 206c-1-5-4-8-8-7-5 0-8 3-8 8 1 5 4 7 8 7 5 0 8-3 8-8z m-56-56c-5 1-8 4-7 9 0 4 3 7 7 7 5 1 8-3 8-7 0-5-3-8-8-9z m8-122c-1-5-3-9-8-8-5 0-7 3-7 7-1 5 2 8 7 8 5 0 7-3 8-7z m72 184c-4 0-8 2-8 7 0 5 3 8 7 8 5 0 8-3 9-8 0-4-3-7-8-7z m-85-84c0-5-2-8-7-9-5 0-8 2-8 7-1 5 2 8 6 8 5 1 8-2 9-6z m0-69c0-4-3-8-8-8-4 0-7 3-7 7-1 5 2 8 7 9 5 0 7-3 8-8z m267-59c-9 0-16 3-22-4-12-14-24-28-36-42-12-13-21-28-21-47 1-6-3-7-7-7-42 0-83 0-124 0-5 0-8 1-8 7 1 19-8 34-20 47-10 12-21 24-31 36-18 20-32 43-37 69-23 115 73 213 189 192 10-2 16 1 21 10-20 9-51 12-81 6-67-12-114-50-137-114-23-63-12-121 32-172 12-14 25-29 37-44 9-9 12-21 12-34 0-23 0-46 0-69 0-24 14-39 39-41 5-1 8-2 11-8 7-15 19-23 35-23 16 0 28 8 34 23 3 5 5 7 12 8 25 2 38 17 39 42 0 18 1 37-1 55-2 26 8 46 25 64 14 14 27 28 39 46z m-139-221c-3-2-7-2-10-2-8 0-18 4-18 11 0 9 10 3 16 4 1 1 2 0 3 0 2 0 5 1 7 0 4 0 11 3 12-2 1-6-5-9-10-11z m-21 75c22 0 44 0 66 0 6-1 15 5 15-7 1-13-9-8-14-8-23-1-45-1-68 0-6 0-11 0-10-9 0-8 5-7 10-7 23 0 46 0 69 0 3 0 8 2 9-2 2-4-3-7-6-9-4-3-9-4-15-4-30 0-58 0-88 0-3 0-6 0-8 1-6 2-14 5-13 12 1 5 9 1 13 2 2 0 4 0 6 0 6-1 8 2 8 8-1 6-3 8-8 8-5-1-10 0-15-1-6 0-9 2-9 8 0 7 3 8 9 8 5 0 10 0 15 0 6-1 8 2 8 7 0 5-1 8-7 8-6 0-12 0-17 0-5 0-8 2-8 7 0 7 2 9 8 9 21-1 41 0 62 0 19 0 38 0 58 0 5 0 12 2 12-8 0-10-7-8-12-8-23 0-47 0-70 0-6 0-11 2-11-7-1-10 5-8 11-8z m281 309c-1 6-11 6-16 9-17 7-21 16-14 33 2 5 9 12 6 16-7 9-15 17-23 24-5 4-11-1-16-4-16-10-32-2-36 15-1 5-3 12-7 13-11 2-22 2-33 0-6 0-6-8-8-13-4-17-20-25-36-15-4 3-10 7-14 5-9-7-17-15-24-24-4-5 2-11 5-16 9-15 1-32-16-35-18-3-13-17-14-29-2-12 4-17 14-19 17-4 25-20 15-36-2-5-7-11-4-14 6-9 14-17 23-24 5-4 11 2 16 5 15 9 32 0 35-15 3-14 10-19 21-15 25 0 20-4 28 16 7 17 17 22 33 14 12-7 21-6 29 5 1 2 3 4 5 5 8 5 8 12 4 20-4 7-9 13-5 23 4 10 11 13 19 17 5 1 12 2 13 7 1 10 2 21 0 32z m-23-27c-23-11-31-29-21-52 2-6 2-9-3-14-4-5-8-4-13-2-23 10-42 2-51-21-3-6-5-8-12-8-6 0-10 2-11 8-2 20-20 21-33 27-7 3-13-3-19-6-6-3-9-1-14 3-4 4-5 8-2 12 12 16 2 29-3 43-3 7-11 7-17 9-5 2-9 5-9 12 0 7 4 9 9 11 23 10 30 29 21 51-3 6-3 10 2 15 5 4 8 3 14 1 22-10 41-2 51 22 2 5 5 8 11 8 6 0 10-3 11-8 3-20 20-22 33-27 7-3 13 3 19 6 5 2 9 2 13-2 4-4 7-8 3-14-12-15-2-29 3-42 3-7 12-7 18-10 5-2 9-5 8-11 1-7-3-9-8-11z m-100 57c-25 0-46-21-46-47 0-25 21-45 46-45 25 0 47 21 46 46 0 25-21 46-46 46z m0-77c-17 0-31 14-31 31 1 17 14 30 31 30 17 1 31-13 31-30 0-17-14-31-31-31z"/>
<glyph glyph-name="provider" unicode="&#57354;" d="M486 59c0-16 0-30 0-45 1-10-3-14-13-14-145 0-290 0-434 0-10 0-13 5-13 14 0 14 0 29 0 44-1 0-1 1-2 1-29 1-24 4-24 28 0 93 0 186 0 280 0 16 1 17 18 17 39 0 78 0 119 0 0 5 0 10 0 14 0 33 0 65 0 98 0 15 1 16 16 16 69 0 138 0 207 0 11 0 16-4 15-16 0-32 0-65 0-98 0-4 0-8 0-14 6 0 10 0 15 0 36 0 72 0 107 0 11 0 15-4 15-14 0-98 0-197 0-295 0-11-4-16-15-15-3 0-6-1-11-1z m-262 75c-15 19-15 42 2 58 15 16 39 18 55 4 8-6 13-16 16-25 6-16-2-29-12-40 9-8 16-15 24-23 5 5 10 10 15 14-9 14-11 27-3 41 8 14 22 17 36 17 0 105 0 210 0 314-68 0-135 0-202 0 0-105 0-210 0-314 37-2 48-20 34-59 5-4 10-9 14-11 7 8 14 15 21 24z m-88-10c-10 13-10 27-1 42 2 3 2 8 2 12 0 59 0 119 0 178 0 3-1 6-1 10-40 0-78 0-118 0 0-96 0-192 0-288 19-6 21 13 34 18-11 15-13 30-2 44 9 12 21 17 35 12 30-10 31-31 18-57 3-2 6-3 7-4 9 11 16 21 26 33z m240 242c0-3-1-5-1-7 0-62 0-123 0-184 0-2 0-5 1-7 11-16 10-31 1-44 5-7 10-11 14-16 3-6 6-12 10-19 3 3 6 5 8 8-12 20-10 37 4 49 13 10 31 11 43 1 15-12 17-28 5-52 12-4 15-24 33-17 0 96 0 192 0 288-39 0-78 0-118 0z m-77-348c0 21 0 41-1 61 0 22-18 39-40 41-21 1-41-14-43-35-3-22-1-45-1-67 28 0 56 0 85 0z m-103 0c0 21 1 41 0 61 0 17-14 31-31 32-18 1-34-11-36-28-2-22 0-43 0-65 22 0 44 0 67 0z m188 0c0 21 1 42 0 62-1 17-15 29-31 31-17 1-34-9-35-24-2-23-1-46-1-69 22 0 44 0 67 0z m86 0c-1 14 0 29-3 43-3 15-18 25-33 24-14 0-30-11-32-25-1-14 0-28 0-42 22 0 43 0 68 0z m-360 0c0 14 1 26 0 39-2 16-16 28-32 28-16 1-32-10-34-26-1-13 0-27 0-41 22 0 43 0 66 0z m146 119c15 0 26 12 26 26-1 13-12 25-26 25-14 0-25-12-25-26-1-14 11-25 25-25z m-94-9c10 0 17 8 17 17 0 9-7 17-16 17-9 0-17-7-18-17 0-9 8-17 17-17z m187 0c10 0 18 8 18 17 0 9-8 17-17 17-10-1-16-6-17-16-1-10 7-18 16-18z m-272-25c9 0 17 7 17 17 0 9-8 17-18 17-9-1-15-7-16-17-1-9 7-17 17-17z m358 0c9 0 17 7 17 17 0 8-8 16-16 16-9 1-17-7-18-16 0-10 7-17 17-17z m-178 375c15 0 31-1 46 0 9 0 13-4 13-13 0-20 0-40 0-61 0-8-4-12-12-12-32 0-64 0-96 0-9 0-12 5-12 13 0 20 1 39 0 59 0 10 4 14 13 14 16-1 32 0 48 0z m-43-68c28 0 56 0 84 0 0 18 0 34 0 50-29 0-56 0-84 0 0-17 0-33 0-50z m0-51c0 5 0 10 0 15 5 0 10 0 15 0 0-4 0-9 0-15-4 0-9 0-15 0z m34 16c6 0 10 0 16 0 0-5 0-10 0-16-5 0-10 0-16 0 0 5 0 10 0 16z m34-16c0 5 0 10 0 15 5 0 10 0 16 0 0-5 0-9 0-15-5 0-10 0-16 0z m-86-19c0-5 0-10 0-15-6 0-11 0-16 0 0 5 0 10 0 15 5 0 11 0 16 0z m33-15c-5 0-10 0-15 0 0 5 0 10 0 15 5 0 10 0 15 0 0-4 0-9 0-15z m35 0c-6 0-11 0-16 0 0 5 0 10 0 15 5 0 10 0 16 0 0-5 0-9 0-15z m34 15c0-5 0-10 0-15-5 0-10 0-16 0 0 5 0 10 0 15 5 0 10 0 16 0z m34 0c0-5 0-10 0-15-5 0-10 0-15 0 0 5 0 10 0 15 5 0 9 0 15 0z m-118-34c5 0 10 0 16 0 0-4 0-9 0-15-5 0-10 0-16 0 0 5 0 9 0 15z m50-15c-6 0-11 0-16 0 0 5 0 10 0 15 5 0 10 0 16 0 0-5 0-10 0-15z m34-68c-6 0-10 0-16 0 0 5 0 10 0 15 6 0 11 0 16 0 0-5 0-10 0-15z m34 15c0-5 0-9 0-15-4-1-9-1-15-1 0 6 0 10 0 16 5 0 10 0 15 0z m-152 68c5 0 10 0 15 0 0-4 0-9 0-15-5 0-10 0-15 0 0 5 0 10 0 15z m136 0c6 0 11 0 16 0 0-5 0-10 0-15-5 0-10 0-16 0 0 5 0 10 0 15z m-68-34c6 0 11 0 16 0 0-5 0-10 0-15-5 0-10 0-16 0 0 5 0 10 0 15z m50 34c0-5 0-10 0-15-5 0-10 0-16 0 0 5 0 9 0 15 5 0 10 0 16 0z m-102-68c0-5 0-10 0-15-5 0-10 0-16 0 0 5 0 9 0 15 5 0 10 0 16 0z m52-15c0 5 0 10 0 15 5 0 10 0 16 0 0-5 0-10 0-15-5 0-10 0-16 0z m-52 50c0-6 0-11 0-16-5 0-10 0-16 0 0 4 0 9 0 15 5 0 10 1 16 1z m18-16c0 5 0 10 0 15 5 0 10 0 16 0 0-5 0-10 0-15-6 0-11 0-16 0z m84 0c-6 0-10 0-16 0 0 5 0 10 0 15 6 0 10 0 16 0 0-5 0-10 0-15z m18 0c0 5 0 10 0 15 6 0 11 0 16 0 0-5 0-10 0-15-5 0-10 0-16 0z m-86-19c0-5 0-10 0-15-5 0-10 0-16 0 0 5 0 10 0 15 5 0 10 0 16 0z m-120-58c-6 0-10 0-15 0 0 45 0 89 0 135 5 0 9 0 15 0 0-45 0-90 0-135z m-67 135c6 0 11 0 16 0 0-45 0-89 0-135-5 0-10 0-16 0 0 45 0 90 0 135z m374 0c0-45 0-90 0-135-5 0-9 0-15 0 0 45 0 90 0 135 5 0 10 0 15 0z m51-135c-5 0-10 0-15 0 0 45 0 89 0 135 5 0 9 1 15 1 0-46 0-91 0-136z"/>
<glyph glyph-name="provider-1" unicode="&#57355;" d="M414 274c0-67 0-135 0-203 0-8 1-13 10-12 5 1 8-3 8-10 0-11-1-23 0-35 0-10-3-14-13-14-68 0-136 0-204 0-41 0-82 0-123 0-9 0-12 4-12 13 0 12 0 24 0 36 0 7 2 11 8 10 11-1 10 6 10 13 0 135 0 269 0 403 0 17 0 17 15 17 8 0 15 1 23 0 8 0 17-1 15 13-1 7 5 7 10 7 16 0 33 0 49 0 47 0 93 0 140 0 8 0 13-2 12-12-1-7 2-8 7-8 11 0 21 0 32 1 10 0 14-4 14-15-1-68-1-136-1-204z m-281-18c0-61 0-123 0-184 0-9 1-13 10-13 43 1 86 1 129 0 8 0 11 2 10 11 0 32 0 63 0 94 0 10 3 14 12 13 10 0 19 0 29 0 9 1 13-3 13-13-1-31 0-62-1-93 0-10 3-13 11-12 8 1 15 1 23 0 9-1 10 3 10 12 0 124 0 247 0 370 0 10-2 12-11 12-75 0-149 0-224 0-9 0-11-3-11-13 0-61 0-122 0-184z m70-118c-30 0-26-5-26 29 0 34-5 30 26 30 31 0 27 4 27-30 0-34 3-29-27-29z m-26 228c0 32-3 27 25 28 28 0 28 0 28-31 0-32 3-28-25-28-28 0-28 0-28 31z m158-2c0-33 4-29-25-29-28 0-28 0-28 31 0 32-3 27 24 28 1 0 2 0 2 0 27 0 27 0 27-30z m-132-128c-26 0-26 0-26 30 0 34-4 29 26 29 31 0 27 5 27-29 0-34 4-29-26-30-1 0-1 0-1 0z m105 0c-29 1-26-4-26 29 0 30 0 30 28 30 29 0 25 4 25-29 0-30 0-30-27-30z"/>
<glyph glyph-name="search-document" unicode="&#57356;" d="M458 59c-5 7-26 24-26 24 0 0 0 256 0 378 0 30-16 46-48 46-94 0-190 0-285 0-30 0-46-16-46-48 0-64 0-128 0-192 0-64 0-128 0-190 0-32 16-48 48-48 86 0 289 0 289 0 4-3 16-15 20-18 17-14 33-11 44 2 16 13 16 32 4 46z m-100-8c-84 0-169 0-254 0-21 0-27 7-27 27 0 127 0 255 0 381 0 21 6 29 27 29 94 0 187 0 282 0 20 0 27-6 27-27 0-88 0-176 0-264 0-3 0-7 0-10-11 47-37 79-83 91-45 13-95-4-122-44-26-39-26-92 2-128 28-39 76-55 123-40 22 6 25 6 40-15-5 0-11 0-15 0z m53 106c0-16 0-37 0-53-9 6-14 16-8 27 3 8 5 16 8 26z m-22 14c0-49-40-89-90-89-49 0-91 41-89 91 0 49 41 89 91 89 49-1 88-41 88-91z m51-145c-5-4-10-4-14 1-18 18-37 35-55 55-1 1-1 3 0 6 13 16 13 16 29 2 13-13 26-26 40-39 3-3 6-6 6-9 0-10-3-13-6-16z m-195 382c-40 0-82 0-122 0-5 0-9 0-13 5-3 3-4 6-3 11 2 5 7 6 13 6 19 0 38 0 58 0 60 0 121 0 180 0 4 0 7 0 10 0 6 0 11-4 10-11 0-6-5-9-12-9-9 0-17 0-27 0-30-2-62-2-94-2z m-3-64c-39 0-77 0-116 0-3 0-6 0-8 0-6 0-11 3-11 10 0 8 5 11 11 11 18 0 36 0 52 0 62 0 126 0 188 0 4 0 7 0 10 0 6 0 11-5 10-11 0-7-5-10-12-10-8 0-16 0-24 0-32 0-67 0-100 0z m-93-64c-10 0-21 0-31 0-6 0-11 3-11 10 0 6 5 11 11 11 21 0 42 0 61 0 7 0 11-3 11-10 0-8-4-11-12-11-8 0-20 0-29 0z m-13-43c6 0 13 0 19 0 7 0 10-5 10-10 0-6-3-9-10-9-13 0-25 0-40 0-6 0-9 4-9 11 0 6 4 9 9 9 8-1 15-1 21-1z m0-85c-6 0-13 0-19 0-7 0-10 5-10 11 0 7 3 10 10 10 13 0 27 0 40 0 6 0 8-5 8-10 0-5-3-9-8-9-7-4-15-2-21-2z m94 22c2 36 31 64 66 66 8 0 14-2 14-10 0-8-4-11-12-11-28-3-44-19-47-45 0-8-3-14-11-12-10 0-11 6-10 12z"/>
<glyph glyph-name="selected-field" unicode="&#57357;" d="M398 72c-27 34-54 66-81 100-14-39-27-78-42-118-38 106-76 211-114 317 104-40 208-81 312-121-38-13-75-25-112-37 27-33 54-65 81-97-14-15-29-29-44-44z m115 117l-512 0 0 269 512 0z m-499 14l486 0 0 242-486 0z"/>
<glyph glyph-name="send-1" unicode="&#57358;" d="M350 256c-14 3-28 5-44 8-60 10-120 19-180 30-17 4-35 7-52 10-2 0-5 3-5 5-21 53-42 107-61 163-5 10-3 18 5 24 8 8 19 11 29 6 8-3 16-8 25-11 141-70 282-141 423-213 3-1 4-3 8-4 14-12 11-32-5-40-56-29-112-56-168-85-91-45-184-91-277-138-3-1-8-3-13-5-21-3-33 16-27 36 8 22 16 43 24 64 11 32 24 64 35 96 3 4 5 6 8 6 72 11 143 24 215 35 20 5 41 8 60 13 0-2 0 0 0 0z"/>
<glyph glyph-name="shield-lock" unicode="&#57359;" d="M250 493c64-40 150-53 201-58 10-125-17-230-80-313-43-60-94-92-120-106-81 53-134 117-163 194-26 72-27 144-29 208 56 3 131 27 191 75m-2 19c-2 0-3 0-3-2-59-52-141-76-195-76-2 0-4-2-5-2 0-2-2-3-2-5l0-8c2-65 3-141 29-213 30-81 86-148 174-204 2 0 2-2 4-2 1 0 1 0 3 0 22 11 81 46 131 112 66 88 94 200 82 333 0 3-2 5-5 5-50 3-144 16-210 59 0 3-1 3-3 3z m77-235l0 37c0 17-7 33-16 44-13 16-32 26-53 26-38 0-69-32-69-70l0-37-19 0 0-149 176 0 0 149z m-56-75l0-34-24 0c0 2 0 34 0 34-5 3-8 9-8 16 0 11 9 19 19 19 11 0 19-8 19-19 2-7-1-13-6-16z m22 75l-75 0 0 41c0 23 14 40 37 40 22 0 37-17 37-40l0-41z"/>
<glyph glyph-name="shield-lock1" unicode="&#57360;" d="M256 237c-10 0-19-8-19-19 0-7 3-13 8-16 0 0 0-32 0-34l24 0 0 34c5 3 8 9 6 16 0 11-8 19-19 19z m-3 121c-23 0-37-17-37-40l0-41 74 0 0 41c0 23-15 40-37 40z m213 88c0 4-2 5-5 5-50 3-144 16-210 59-1 2-5 2-6 0-59-52-141-76-195-76-2 0-4-2-5-4-2 0-2-1-2-3l0-8c2-65 3-141 31-213 28-83 86-148 174-204 2-2 2-2 3-2 0 0 2 0 2 2 24 11 81 46 131 112 66 88 93 200 82 332z m-122-318l-176 0 0 149 19 0 0 37c0 38 31 70 69 70 21 0 40-10 53-26 9-11 16-27 16-44l0-37 19 0z"/>
<glyph glyph-name="square-key" unicode="&#57361;" d="M53 98c3-16 6-32 9-47 2-1 2-3 4-3 11-2 24-2 35-3 5 0 8-2 13-2 1 0 3 0 3 2 5 6 11 11 16 17 0 2 1 4 1 4-1 4-3 9-4 16 3 0 4 0 6 0 3 0 8 0 11 0 2 0 3 0 3 1 5 5 8 10 13 15 2 1 2 1 2 4-2 5-3 8-3 13 0 2 0 2 0 3 1 4 4 5 8 8 1 2 3 2 4 2 4-2 7-2 12-3 1 0 3 0 3 1 5 5 9 10 13 15 0 0 0 1 0 3-2 6-4 11-5 18 0 1 0 1 0 3 3 5 8 9 13 13l3 1c5-1 11-3 16-5 0 0 1 0 3 0 3 5 8 8 11 13 0 2 2 2 2 3 0 5-2 8-2 13 0 2 0 3 2 3 3 0 6 0 11 0 3 0 6 2 8 4 2 3 2 3 5 0 1-2 5-5 6-7 2-1 2-1 3 0 10 10 21 18 31 27 1 2 1 2 3 4 3 4 8 4 13 3 13-2 25 0 37 1 25 7 46 18 62 39 11 13 19 27 24 43 8 29 6 58-6 85-10 19-24 35-44 48-14 9-32 16-49 17-34 4-64-4-90-25-14-13-27-27-33-47-5-16-8-30-8-46 0-10 1-19 3-29 0-1 0-3-2-5-9-14-19-27-29-41 0 0 0 0 0-2 4-3 7-5 10-8 2-1 2-1 0-3-27-29-53-59-78-88-23-26-45-50-68-75-1 0-1-2-1-3z m280 283c3 13 16 22 30 19 13-3 23-16 19-30-3-13-16-23-30-20-13 4-22 18-19 31z m78-381l-310 0c-56 0-101 45-101 101l0 310c0 56 45 101 101 101l310 0c56 0 101-45 101-101l0-310c0-56-45-101-101-101z m-310 496c-47 0-85-38-85-85l0-310c0-47 38-85 85-85l310 0c47 0 85 38 85 85l0 310c0 47-38 85-85 85z"/>
<glyph glyph-name="submit" unicode="&#57362;" d="M95 15l339 0 0-18-339 0z m133 66l72 0 0-37-72 0z m36 410l-169-170 51-51 82 83 0-257 72 0 0 257 83-83 51 51z"/>
<glyph glyph-name="unlock" unicode="&#57363;" d="M412 330l-13 0 0 47c0 74-60 135-135 135l-8 0c-66 0-120-47-133-109l39 0c14 40 53 70 98 70 57 0 104-47 104-104l0-39-264 0c-21 0-39-18-39-39l0-130c0-89 73-161 162-161l66 0c89 0 162 72 162 161l0 130c0 21-18 39-39 39z m-131-156c1-1 1-2 1-3l0-45c0-14-12-26-26-26-14 0-26 12-26 26l0 45c0 1 0 3 1 4-10 8-15 19-15 32 0 23 18 41 40 41 23 0 41-19 41-41 1-13-6-25-16-33z"/>
<glyph glyph-name="user-check" unicode="&#57364;" d="M18 54c0 4 2 9 2 13 4 55 27 102 68 141 16 14 34 27 53 37 1 1 3 1 4 0 7-5 16-10 23-15 10-5 21-10 31-12 2 0 3-2 3-3 10-16 18-32 27-47 0-2 1-2 1-3 5 9 10 16 15 24 1-1 2-3 4-6 7-9 16-18 24-27 23-19 48-31 78-35 24-3 47 0 70 7 1 0 3 1 3 1 4 2 4 2 6-2 7-17 11-36 12-56 0-7 0-13 2-20-2 0-2 0-3 0-141 0-283 0-424 0-1 0-1 0-3 0 4 0 4 2 4 3z m356 95c-55-3-119 46-119 120 0 74 61 119 119 119 65 0 120-54 120-119 0-73-62-123-120-120z m47 172c-20-19-40-39-61-61 0 2-2 2-2 3-10 10-20 20-29 30-2 1-3 1-5 0-5-6-13-13-18-19 0 0-2-1-2-2 19-20 39-39 57-57 29 28 57 57 84 84-8 7-15 15-24 22z m-195-78c-7 2-14 2-21 4-40 12-67 39-77 80-9 31-3 63 17 90 17 24 43 40 73 44 7 1 12 1 20 0 17 0 32-4 48-13 16-9 28-18 37-33 1-1 3-4 3-5 0 0 0-2-2-3-5-3-11-5-15-7-27-15-49-34-64-62-12-21-19-42-17-66 0-9 0-16 0-25-2-1-2-1-2-4z"/>
<glyph glyph-name="v-circle" unicode="&#57365;" d="M256 498c-134 0-242-108-242-242 0-134 108-242 242-242 134 0 242 108 242 242 0 134-108 242-242 242z m0-407c-91 0-165 74-165 165 0 91 74 165 165 165 91 0 165-74 165-165 0-91-74-165-165-165z m-40 57l-78 183 60 0 30-76c8-22 15-43 21-66l1 0c6 21 15 44 22 64l31 78 58 0-81-182-64 0z"/>
<glyph glyph-name="validation" unicode="&#57366;" d="M256 509c-139 0-253-114-253-253 0-139 114-253 253-253 139 0 253 114 253 253 0 139-114 253-253 253z m128-435c-83 0-168 0-251 0 0 6 0 14 0 20 0 7 6 10 13 12 0 19 4 38 12 54 13 29 34 50 60 67 6 5 12 10 14 18 5 14 0 29-13 37-16 9-29 22-41 36-23 26-34 55-36 88-9 4-12 7-12 16 0 5 0 10 0 16 83 0 168 0 251 0 0-8 0-14 0-22 0-6-7-8-11-10 0-12-2-24-5-36-11-37-35-64-66-85-9-7-16-13-16-24-1-13 3-24 15-31 14-9 27-20 38-33 22-26 35-55 35-90 0 0 0 0 0-1 10-2 13-7 13-16 0-5 0-12 0-16z m-154 230c12-6 18-16 23-29 1-3 1-5 3-8 0 2 0 2 0 2 5 16 14 27 27 37 10 6 19 14 27 22 8 8 15 18 21 29-49 0-101 0-150 0 0-2 0-2 0-2 0-1 1-1 1-3 13-19 29-35 48-48z m98-174c-13 9-27 16-42 20-11 5-24 8-30 21-5-9-13-14-22-17-8-4-15-5-21-8-13-7-26-13-35-23-5-5-8-9-10-16 59 0 117 0 174 0-1 7-6 15-14 23z m-66 115c0 1 0 3 0 3-1 5-3 6-6 6-3 0-6-3-6-6 0-2 0-5 0-6 1-4 3-5 6-5 3 0 6 1 6 5 0 0 0 1 0 3z m0-29c0 2 0 3 0 3-1 5-3 7-6 7-3 0-6-4-6-7 0-1 0-5 0-6 1-3 3-5 6-5 3 0 6 2 6 5 0 0 0 1 0 3z m-6-19c-3 0-6-3-6-7 0-1 0-4 0-6 1-3 3-5 6-5 3 0 6 2 6 5 0 0 0 2 0 3 0 2 0 3 0 3-1 5-3 7-6 7z"/>
</font>
</defs>
</svg>
